<?xml version="1.0" encoding="UTF-8"?><svg id="Layer_2" xmlns="http://www.w3.org/2000/svg" width="190.66" height="222.99" xmlns:xlink="http://www.w3.org/1999/xlink" viewBox="0 0 190.66 222.99"><defs><style>.cls-1{fill:#fff;}.cls-2{fill:url(#linear-gradient);}</style><linearGradient id="linear-gradient" x1="72.44" y1="13.07" x2="143.56" y2="144.25" gradientUnits="userSpaceOnUse"><stop offset="0" stop-color="#e21019"/><stop offset=".21" stop-color="#e2131c"/><stop offset=".3" stop-color="#e31821"/><stop offset=".34" stop-color="#e31b24"/><stop offset=".38" stop-color="#e4272f"/><stop offset=".42" stop-color="#e73a41"/><stop offset=".45" stop-color="#ea555b"/><stop offset=".49" stop-color="#ee777c"/><stop offset=".52" stop-color="#f3a1a5"/><stop offset=".55" stop-color="#f9d3d4"/><stop offset=".58" stop-color="#fff"/><stop offset=".6" stop-color="#fad9da"/><stop offset=".63" stop-color="#f5aeb1"/><stop offset=".66" stop-color="#f18c90"/><stop offset=".69" stop-color="#ee7379"/><stop offset=".72" stop-color="#ec656a"/><stop offset=".74" stop-color="#ec6066"/><stop offset=".78" stop-color="#e8474e"/><stop offset=".83" stop-color="#e52f37"/><stop offset=".88" stop-color="#e31d26"/><stop offset=".93" stop-color="#e2131c"/><stop offset="1" stop-color="#e21019"/></linearGradient></defs><g id="Layer_1-2"><g><g><path d="m11.98,96.46L0,89.52v-37.12s11.86,7.01,11.86,7.01l.12,37.05Z"/><path d="m49.09,117.98l-12.04-6.98-8.15-24.42.16,19.78-9.89-5.73-.19-37.01,13.31,7.87,6.83,20.67-.18-16.74,9.67,5.72.49,36.84Z"/><path d="m55.54,107.03l10.46,6.12.15,8.47c.01.84.75,1.69,2.2,2.53,1.4.81,2.09.8,2.07-.04l-.08-4.38c-.03-1.34-1.32-3.64-3.87-6.91-4.95-6.2-8.03-10.22-9.24-12.06-1.21-1.85-1.83-3.45-1.85-4.81l-.06-4.11c-.07-4.74,4.32-4.48,13.14.73,7.86,4.65,11.81,9.1,11.91,13.4l.14,6.31-10.34-6.07-.13-6.73c-.01-.73-.6-1.43-1.76-2.12-1.36-.8-2.02-.5-2,.91l.26,2.5c.02,1.36,1.34,3.7,3.94,7.01,4.83,6.02,7.91,10.04,9.23,12.08,1.32,2.04,2,3.86,2.03,5.49l.1,4.7c.11,4.91-4.26,4.81-13.14-.34-8.61-4.99-12.97-9.75-13.04-14.23l-.13-8.43Z"/><path d="m11.76,124.12l.04,14.04-11.8-6.69v-37.95l12.59,7.29c4.97,2.88,8.65,5.44,11.05,7.7,2.4,2.26,3.61,4.72,3.63,7.41l.08,10.45c.02,2.48-.95,3.67-2.91,3.57-1.96-.1-6.19-2.03-12.69-5.82Zm3.97-5.14l-.04-9.05c0-1.33-1.33-2.76-3.99-4.29l.04,13.05c2.67,1.53,3.99,1.62,3.99.29Z"/><path d="m54.09,162.14l-23.14-13.13-.31-37.76,22.77,13.18.07,4.79-11.02-6.36.12,10.15,9.98,5.73.06,4.56-9.99-5.72.15,13.3,11.25,6.4.07,4.87Z"/><path d="m82.56,154.14l-10.44-6-.14-7.39c-.01-.61-.55-1.22-1.61-1.83s-1.66-.66-1.65-.05l.48,26.04c.01.62.58,1.24,1.7,1.88,1.07.61,1.6.6,1.58-.01l-.18-9.3,10.47,5.99.21,9.55c.04,1.79-1.15,2.53-3.57,2.22-2.43-.31-5.19-1.34-8.28-3.09-8.98-5.09-13.52-9.93-13.59-14.47l-.37-24.2c-.07-4.84,4.35-4.67,13.24.48,7.92,4.59,11.91,9.06,12.01,13.45l.15,6.76Z"/><path d="m25.57,153.93l-6.71-3.79.17,33.64-12.19-6.76-.06-33.71-6.79-3.84v-5.01s25.54,14.48,25.54,14.48l.03,4.99Z"/><path d="m27.75,182l-.18-24.84c-.04-4.97,4.51-4.86,13.6.3,8.91,5.05,13.39,10.02,13.46,14.93l.36,24.73c.03,2.25-1.19,3.29-3.67,3.12-2.49-.17-5.75-1.38-9.79-3.62-9.13-5.07-13.74-9.95-13.77-14.61Zm15.65,9.12l-.3-26.22c0-.76-.65-1.51-1.93-2.23s-1.99-.75-1.99.02l.27,26.24c0,.78.68,1.54,2.02,2.28,1.29.72,1.93.69,1.92-.09Z"/><path d="m87.45,221.79l-11.67-6.47c-1.29-1.8-1.98-5.26-2.08-10.36v-.05s.03-2.27.03-2.27c.01-3.15.02-4.77.02-4.84-.03-1.3-1.25-2.63-3.67-3.99l.34,18.48-11.8-6.54-.59-38.39,14.41,8.17c3.27,1.85,6.11,4,8.55,6.44,2.43,2.44,3.67,4.82,3.72,7.15l.1,4.56c.07,2.96-2.28,3.62-7.05,1.97,4.83,3.52,7.29,6.98,7.36,10.37l-.09,4.1c.14,6.15.94,10.05,2.41,11.68Zm-13.91-32.63l-.12-6.29c-.03-1.33-1.23-2.67-3.62-4.02l.19,10.32c2.4,1.35,3.58,1.34,3.55,0Z"/></g><g><path class="cls-2" d="m0,47.39l82.12,45.69c7.59,4.22,12.29,12.22,12.29,20.91v109l96.25-55.11v-99.08c0-10.25-5.63-19.67-14.66-24.53L93.68,0,0,47.39Z"/><g><path class="cls-1" d="m54.22,52.86l-6.32,3.29c-1.41-.04-3.82-.98-7.22-2.83l-.04-.02-1.5-.85c-2.09-1.18-3.16-1.78-3.21-1.8-.87-.47-1.95-.37-3.25.31l12.31,6.67-6.28,3.27-25.51-13.86,7.67-4.05c1.75-.93,3.64-1.54,5.67-1.83,2.03-.3,3.82-.02,5.4.83l3.07,1.66c1.99,1.08,2.04,2.48.16,4.22,3.15-1.07,5.87-.99,8.15.24l2.72,1.57c4.12,2.23,6.85,3.28,8.19,3.17Zm-24.08-5.33l-4.22-2.28c-.89-.48-1.98-.39-3.26.29l6.91,3.74c1.28-.67,1.47-1.26.57-1.75Z"/><path class="cls-1" d="m70.37,44.42l-12.44,6.48-25.74-13.88,12.21-6.45,3.31,1.77-5.94,3.13,6.97,3.75,5.38-2.83,3.14,1.68-5.39,2.83,9.09,4.89,6.08-3.17,3.34,1.79Z"/><path class="cls-1" d="m96.75,30.68l-5.77,3-14.71-7.83,11.35,9.58-4.43,2.31-18.46-5.83,14.63,7.82-5,2.6-25.94-13.9,8.14-4.3,16.4,5.66-10.97-8.53,8.55-4.52,26.21,13.92Z"/><path class="cls-1" d="m118.76,19.22l-6.48,3.37-8.21-3.18-2.88,1.51,5.99,4.33-6.44,3.35-21.46-16.46,8.17-4.31,31.33,11.38Zm-18.89-1.47l-8.8-3.67,6.98,4.62,1.82-.95Z"/></g><g><path class="cls-1" d="m116.71,178.78l-7.62,4.24v-7.58c0-.62-.39-.72-1.16-.29s-1.21.99-1.21,1.61v26.55c0,.62.4.71,1.21.26.77-.43,1.16-.96,1.16-1.58v-9.45l7.62-4.24v9.71c0,1.81-.89,3.76-2.66,5.85-1.78,2.08-3.78,3.75-6.02,4.99-6.46,3.6-9.69,3.11-9.69-1.49v-24.63c0-4.96,3.23-9.25,9.69-12.85,5.79-3.22,8.68-2.58,8.68,1.94v6.94Z"/><path class="cls-1" d="m138.62,191.47l-8.39,4.67v-18.36l-2.34,1.31v18.36l-8.39,4.67v-38.27l8.39-4.67v15.26l2.34-1.31v-15.26l8.39-4.67v38.27Z"/><path class="cls-1" d="m149.7,185.3l-8.39,4.67v-38.27l8.39-4.67v38.27Z"/><path class="cls-1" d="m168.29,174.94l-15.74,8.77v-38.27l8.39-4.67v33.36l7.35-4.09v4.91Z"/><path class="cls-1" d="m187.09,164.47l-16.4,9.14v-38.27l16.3-9.08v4.91l-7.91,4.41v10.35l7.14-3.98v4.64l-7.14,3.98v13.45l8.02-4.47v4.91Z"/></g></g></g></g></svg>